<?xml version="1.0" standalone="no"?>
<!DOCTYPE svg PUBLIC "-//W3C//DTD SVG 20010904//EN"
 "http://www.w3.org/TR/2001/REC-SVG-20010904/DTD/svg10.dtd">
<svg version="1.0" xmlns="http://www.w3.org/2000/svg"
 width="2400.000000pt" height="2400.000000pt" viewBox="0 0 2400.000000 2400.000000"
 preserveAspectRatio="xMidYMid meet">
<metadata>
Created by potrace 1.16, written by Peter Selinger 2001-2019
</metadata>
<g transform="translate(0.000000,2400.000000) scale(0.100000,-0.100000)"
fill="#000" stroke="none">
<path d="M16794 22939 c-96 -9 -132 -23 -199 -76 -76 -60 -92 -66 -199 -74
-111 -9 -149 -27 -206 -98 -51 -63 -78 -71 -237 -71 -134 0 -139 -1 -179 -28
-156 -105 -246 -219 -444 -567 -70 -122 -104 -193 -120 -251 -22 -77 -25 -81
-67 -104 -52 -28 -71 -60 -106 -182 -31 -105 -39 -120 -92 -180 -31 -35 -44
-59 -48 -90 -22 -156 -8 -132 -182 -338 -65 -77 -92 -139 -115 -270 -12 -62
-28 -126 -36 -142 -8 -16 -56 -73 -106 -126 -208 -223 -335 -404 -388 -551
-17 -47 -42 -119 -57 -160 -20 -57 -37 -84 -71 -116 -41 -39 -45 -47 -72 -157
-34 -137 -30 -130 -135 -283 -106 -155 -114 -170 -130 -270 -13 -84 -30 -120
-75 -160 -27 -24 -59 -91 -60 -122 0 -39 -23 -74 -62 -94 -51 -26 -65 -51 -76
-135 -12 -86 -26 -114 -97 -196 -56 -64 -68 -88 -104 -213 -22 -78 -38 -104
-171 -285 -78 -107 -115 -174 -259 -465 -313 -635 -501 -966 -823 -1449 -77
-114 -159 -248 -183 -296 -78 -161 -80 -267 -8 -339 43 -43 39 -65 -20 -122
-37 -36 -46 -40 -77 -35 -25 4 -46 18 -73 48 -21 24 -54 59 -72 78 l-33 36 19
104 c23 126 17 151 -61 270 -40 61 -57 101 -91 220 -48 168 -51 175 -159 344
-120 187 -159 264 -174 344 -10 55 -23 83 -60 135 -44 61 -47 70 -45 121 3 61
-4 74 -74 152 -40 44 -49 63 -70 145 -21 85 -33 108 -114 230 -112 167 -132
207 -173 339 -41 133 -56 162 -133 257 -93 115 -114 151 -126 222 -13 78 -32
101 -124 148 -84 42 -93 58 -137 267 -17 81 -38 162 -47 180 -8 17 -62 72
-119 121 -59 51 -106 101 -110 115 -19 71 -41 96 -103 119 -65 23 -92 50 -144
141 -43 74 -76 90 -190 90 -49 0 -98 5 -110 11 -12 7 -51 38 -87 69 -109 96
-175 117 -285 90 -22 -6 -89 -15 -148 -20 -151 -14 -257 -50 -316 -108 -54
-52 -66 -57 -151 -66 -98 -11 -111 -24 -135 -138 l-5 -28 -173 0 c-129 0 -187
-4 -227 -16 -139 -41 -230 -154 -230 -285 0 -58 18 -82 90 -117 53 -26 55 -29
60 -73 4 -32 16 -58 41 -90 49 -60 55 -73 69 -159 14 -86 34 -129 100 -220 85
-117 98 -142 109 -214 8 -54 17 -78 43 -110 19 -24 46 -79 64 -131 35 -103 90
-196 131 -221 46 -29 53 -44 53 -115 0 -80 8 -105 50 -153 21 -24 43 -70 66
-141 41 -128 46 -138 144 -290 98 -151 125 -206 189 -379 61 -164 64 -170 141
-287 42 -64 62 -105 70 -147 18 -89 19 -91 80 -157 76 -82 86 -102 109 -232
23 -135 41 -170 137 -275 95 -105 133 -180 189 -374 53 -180 64 -206 135 -294
62 -77 66 -85 84 -173 8 -38 21 -74 29 -80 96 -76 167 -143 175 -165 6 -15 20
-57 32 -94 16 -49 30 -73 51 -88 29 -22 41 -52 85 -224 13 -54 36 -97 105
-202 114 -173 115 -173 130 -283 12 -90 15 -100 81 -205 75 -122 74 -119 58
-271 -9 -88 -9 -90 15 -115 33 -34 31 -62 -5 -116 -35 -50 -52 -60 -172 -102
-130 -46 -184 -77 -219 -125 -17 -23 -83 -147 -146 -275 -146 -298 -165 -330
-287 -487 -126 -161 -153 -200 -202 -295 -34 -65 -39 -84 -39 -140 1 -82 18
-132 62 -180 l34 -38 -21 -63 c-32 -95 -67 -158 -197 -354 -106 -161 -121
-190 -142 -267 -27 -104 -52 -144 -166 -274 -90 -102 -128 -167 -160 -279 -27
-94 -51 -132 -135 -212 -78 -74 -79 -76 -115 -181 -29 -90 -47 -122 -106 -202
-126 -169 -146 -203 -190 -325 -33 -92 -61 -147 -119 -235 -43 -63 -129 -203
-192 -310 -238 -402 -276 -467 -326 -548 -29 -47 -53 -100 -57 -125 -12 -79
-25 -104 -67 -133 -36 -25 -51 -49 -108 -169 -56 -116 -84 -160 -164 -259
-134 -165 -142 -179 -271 -493 -57 -138 -111 -227 -269 -447 -164 -229 -185
-265 -277 -489 -90 -215 -121 -272 -259 -472 -117 -168 -124 -182 -139 -265
-13 -81 -57 -170 -160 -327 -69 -106 -85 -139 -117 -243 -33 -106 -44 -128
-92 -187 -46 -55 -58 -79 -74 -142 -23 -89 -38 -117 -210 -394 -71 -115 -136
-223 -143 -241 -7 -17 -19 -69 -25 -116 -13 -94 -32 -138 -98 -223 -48 -63
-75 -125 -87 -197 -4 -25 -38 -108 -76 -185 -150 -308 -170 -460 -72 -547 10
-9 37 -21 61 -27 23 -7 42 -17 42 -23 0 -6 -25 -88 -56 -182 -73 -225 -94
-315 -94 -407 0 -60 5 -85 23 -120 32 -60 60 -71 181 -72 89 -1 107 1 150 23
62 32 79 54 110 147 17 50 45 103 84 157 78 107 82 116 136 293 78 259 97 290
239 385 80 54 91 65 113 116 46 107 46 106 99 118 54 11 75 35 75 86 0 19 12
38 37 60 71 63 83 77 83 98 0 35 18 60 120 167 108 113 155 192 245 413 74
182 110 244 167 287 53 41 66 59 99 149 12 31 84 158 160 282 109 178 140 236
149 281 29 148 36 161 122 243 l81 77 10 90 10 90 59 57 c56 53 66 70 144 246
81 181 88 192 153 256 56 55 71 77 84 122 65 227 74 247 144 288 25 15 61 39
79 55 29 25 33 34 39 100 8 87 24 116 145 270 161 207 240 345 250 442 9 75
46 138 221 371 127 169 171 240 185 299 19 84 45 122 134 199 101 86 114 105
130 196 18 103 27 122 81 169 57 49 89 95 89 128 0 12 5 45 11 72 9 45 17 56
75 102 54 43 66 58 75 96 10 37 22 53 76 96 73 58 100 104 165 275 71 189 98
233 263 422 129 148 143 169 170 251 25 78 39 94 130 152 41 26 52 39 59 72 5
22 12 56 17 75 6 22 43 74 103 144 77 90 101 126 133 200 31 73 47 97 79 121
40 29 42 33 48 100 9 83 15 95 77 162 31 32 49 61 49 76 0 36 32 71 132 144
105 77 127 113 128 208 0 79 14 122 53 167 l32 38 32 -20 c18 -11 54 -48 80
-82 50 -66 62 -79 207 -218 132 -126 151 -163 206 -402 35 -153 70 -225 171
-353 102 -129 117 -155 133 -235 17 -80 41 -123 162 -291 105 -147 129 -195
161 -322 30 -121 43 -149 94 -203 33 -34 41 -51 50 -105 21 -126 23 -131 118
-218 79 -72 96 -94 146 -189 75 -142 123 -205 178 -231 53 -26 89 -26 142 -2
71 32 105 87 120 193 3 27 10 48 15 48 10 0 58 -68 84 -117 9 -18 19 -67 23
-110 l6 -78 102 -107 c108 -112 109 -116 136 -251 8 -46 20 -69 55 -108 55
-62 69 -89 90 -175 9 -38 23 -81 30 -96 13 -25 236 -216 318 -272 44 -30 75
-32 161 -11 54 13 65 13 108 -2 26 -9 47 -22 47 -27 -1 -23 -27 -56 -67 -85
-22 -16 -68 -65 -101 -108 -33 -43 -68 -86 -79 -95 -31 -28 -103 -56 -244 -93
-172 -46 -215 -66 -357 -168 -106 -77 -123 -85 -177 -92 -72 -8 -87 -15 -146
-70 -56 -53 -100 -75 -202 -105 -67 -20 -89 -32 -142 -81 -91 -83 -160 -99
-417 -99 -165 0 -292 -13 -345 -35 -17 -7 -65 -44 -106 -82 -68 -64 -80 -71
-158 -92 -88 -24 -112 -39 -135 -83 -22 -42 -40 -55 -108 -78 -47 -15 -98 -47
-202 -125 l-138 -105 -39 -107 c-28 -78 -40 -130 -44 -189 -6 -80 -5 -81 28
-125 19 -25 43 -61 54 -81 18 -36 23 -38 115 -59 52 -11 172 -39 265 -61 153
-36 198 -42 440 -58 149 -11 315 -26 370 -35 68 -11 143 -15 235 -13 134 3
136 4 225 44 89 41 91 42 181 37 65 -4 127 1 220 16 71 12 199 32 284 46 232
37 312 60 425 120 93 49 107 53 190 59 128 10 155 22 315 149 122 97 141 107
228 113 63 5 107 18 239 70 164 65 233 84 307 84 73 0 116 19 176 76 68 65
103 74 256 66 166 -8 220 21 300 163 67 120 80 129 213 164 125 33 146 45 271
150 107 89 143 107 268 131 118 22 149 36 189 86 26 32 37 38 86 45 50 6 65
14 124 67 78 67 80 69 187 88 90 15 153 49 192 100 34 43 91 77 169 99 63 18
69 24 220 186 53 57 79 75 214 144 l153 79 49 73 c52 77 61 83 280 202 104 57
191 126 214 172 8 15 15 48 15 72 0 89 7 102 84 156 87 60 491 467 529 532 29
51 47 141 47 239 0 58 -3 70 -30 102 -17 20 -39 40 -50 43 -18 6 -20 12 -14
58 12 98 33 185 84 341 45 140 50 165 50 247 0 129 -29 260 -114 514 -41 121
-81 245 -90 276 -21 76 -43 100 -123 137 -56 26 -79 44 -132 107 -74 89 -112
111 -268 156 -124 37 -184 62 -209 90 -15 17 -31 19 -133 19 -115 1 -116 1
-171 35 -52 34 -58 35 -150 35 -69 0 -134 8 -231 30 -167 36 -178 40 -230 87
l-42 38 -174 3 c-168 4 -336 -6 -533 -29 -89 -11 -103 -10 -222 15 -151 31
-189 32 -331 7 -131 -23 -200 -17 -392 34 -93 24 -157 35 -205 35 -67 0 -72 2
-111 37 -58 53 -120 56 -252 14 -140 -45 -157 -43 -222 24 l-52 55 -90 -6
c-58 -5 -136 -1 -228 10 -414 49 -480 77 -553 230 -34 71 -48 89 -82 108 -43
25 -46 31 -75 166 -28 135 -22 160 67 305 20 32 39 77 43 100 14 91 27 119 79
176 45 48 54 66 65 118 14 72 35 94 111 118 74 23 97 47 166 172 75 134 114
178 225 254 114 78 151 122 189 223 49 128 69 152 136 167 35 8 80 28 113 52
31 21 85 58 120 82 48 33 83 48 140 61 130 28 149 45 201 174 35 87 51 104
192 212 65 50 88 61 188 90 129 37 166 64 190 139 7 24 17 48 20 52 4 4 35 15
70 23 88 20 180 58 290 119 52 29 133 65 180 81 78 25 92 34 165 104 88 85
133 106 197 96 64 -10 116 -43 205 -128 50 -48 103 -88 136 -103 38 -18 58
-34 69 -57 9 -18 54 -81 101 -139 71 -89 90 -107 120 -113 19 -3 42 -14 50
-24 16 -17 14 -21 -28 -62 -24 -24 -47 -56 -50 -71 -4 -16 -27 -51 -52 -79
-44 -49 -45 -51 -38 -103 11 -84 48 -152 127 -234 l73 -75 88 6 c172 13 308
67 549 219 73 46 243 138 378 205 292 143 406 216 520 331 70 70 95 104 137
186 69 136 87 195 86 285 0 55 -6 89 -23 128 -31 72 -163 261 -197 282 -15 9
-59 42 -98 73 -92 75 -125 90 -178 82 -35 -5 -54 0 -115 29 -90 44 -133 73
-292 199 -242 192 -393 285 -565 350 l-90 33 -305 -5 c-168 -2 -390 -3 -495 0
-104 2 -287 4 -405 4 -251 0 -278 -6 -433 -90 -124 -68 -170 -85 -364 -135
-188 -48 -267 -84 -388 -175 -98 -74 -139 -95 -183 -95 -65 0 -93 -14 -166
-80 -76 -70 -85 -74 -191 -85 -111 -13 -131 -28 -155 -123 -13 -52 -57 -84
-150 -107 -102 -26 -146 -50 -164 -93 -37 -85 -38 -85 -113 -108 -65 -20 -80
-29 -145 -96 -63 -63 -82 -76 -143 -97 -109 -37 -146 -63 -256 -181 -117 -126
-138 -141 -258 -185 -85 -31 -87 -32 -146 -111 -42 -57 -88 -101 -160 -156
-156 -119 -296 -249 -396 -366 -104 -122 -104 -122 -219 -202 -47 -32 -103
-77 -125 -99 -56 -58 -68 -54 -88 27 -10 37 -23 86 -29 109 -10 39 -7 53 63
259 l74 217 74 81 c86 95 107 137 125 249 23 137 35 167 90 217 134 123 133
120 140 185 19 165 7 142 118 220 55 39 104 79 108 90 4 11 10 49 14 84 12
105 123 394 188 490 18 25 58 79 90 120 74 92 100 143 134 262 44 154 68 195
160 265 72 55 81 66 109 132 26 61 40 79 101 131 78 65 78 65 100 209 7 50 21
106 30 123 9 17 63 81 120 141 78 83 107 120 115 152 6 22 16 56 21 74 6 18
34 63 62 99 34 42 61 89 76 132 18 53 35 79 86 131 l63 65 7 75 c8 89 22 134
79 256 37 80 50 97 99 133 53 39 56 44 56 84 0 38 6 48 50 92 37 36 52 60 56
87 5 30 18 46 71 89 65 52 139 142 227 275 34 52 49 86 57 133 11 60 14 64 58
91 82 51 85 55 119 153 32 91 37 100 108 167 l75 71 12 105 13 104 66 63 66
62 8 100 c6 88 11 107 44 172 34 65 163 256 208 308 9 11 38 37 64 57 44 36
47 41 58 110 18 113 26 131 91 193 72 69 92 105 125 232 38 143 54 170 139
232 81 59 80 57 91 186 12 146 93 317 200 422 73 72 73 72 109 188 20 63 46
127 59 142 12 14 49 36 82 47 57 20 60 24 91 86 18 36 46 117 63 180 24 89 53
160 129 315 55 110 107 223 115 250 27 86 46 203 46 284 0 73 -2 80 -38 131
-35 51 -41 55 -97 67 -111 22 -269 43 -410 53 -153 11 -154 11 -271 -1z
m-1999 -13147 l80 -37 261 3 260 3 60 -45 c34 -25 73 -50 88 -56 51 -19 114
-11 202 25 113 47 161 47 212 1 54 -49 197 -90 392 -113 l155 -17 62 -58 c34
-32 66 -58 70 -59 5 0 69 -4 143 -8 97 -5 145 -13 170 -25 19 -10 88 -72 153
-138 134 -138 128 -117 80 -273 -89 -285 -299 -530 -664 -773 -81 -53 -122
-90 -173 -150 -63 -76 -71 -82 -149 -112 -96 -36 -124 -61 -179 -152 -56 -94
-77 -112 -164 -138 -60 -17 -87 -32 -128 -70 -52 -46 -54 -47 -134 -53 -45 -4
-95 -13 -111 -21 -16 -9 -65 -55 -109 -104 -81 -88 -81 -88 -158 -107 -67 -17
-86 -27 -138 -73 -42 -37 -103 -73 -196 -118 -74 -36 -155 -81 -181 -100 -26
-19 -53 -32 -60 -30 -8 2 -26 7 -40 10 -47 10 -62 67 -64 241 -2 169 -8 191
-67 252 -38 39 -41 45 -42 105 -1 52 -6 71 -31 107 -26 39 -29 50 -26 112 3
79 -9 112 -86 235 -73 116 -96 165 -138 294 -55 168 -87 233 -146 295 l-52 55
-8 86 c-6 71 -13 95 -38 135 -100 159 -90 126 -97 312 l-7 169 -39 61 c-45 72
-83 150 -92 190 l-6 27 217 0 c250 0 400 12 527 42 75 17 96 26 132 60 75 69
127 71 259 10z"/>
</g>
</svg>
